<svg xmlns="http://www.w3.org/2000/svg" width="372" height="248" viewBox="0 0 372 248" fill="none">
  <path d="M106.005 247.144C104.295 246.626 102.985 246.016 100.858 244.746C95.3174 241.439 93.9022 240.925 91.107 241.202C88.4294 241.468 88.4835 241.495 84.083 237.805C82.5853 236.549 81.5525 236.14 79.0396 235.806C76.5542 235.476 75.8046 234.997 72.8295 231.84C70.2839 229.139 69.2404 228.385 66.5865 227.33C61.7542 225.409 56.7183 218.455 56.0784 212.819L55.8944 211.2L54.9207 210.686C49.5851 207.868 46.8177 198.45 49.5832 192.523L49.9589 191.717L49.3949 191.148C48.0402 189.782 47.5352 188.144 47.2202 184.096C46.9103 180.113 46.5146 178.423 45.6557 177.415C45.3752 177.086 45.4064 176.956 46.0939 175.589C47.6182 172.557 48.0774 170.149 48.5718 162.592C49.2203 152.679 50.0706 149.528 52.8288 146.815L53.9423 145.719L52.5595 144.747C45.2946 139.636 40.5699 129.072 41.4414 119.888L41.6089 118.123L40.7865 117.608C37.7766 115.721 36.774 113.156 35.5672 104.258C34.5043 96.4208 34.2272 95.4951 30.7422 88.1397C27.4516 81.1947 27.4449 81.1712 27.4476 76.5571L27.4496 72.7944L26.8452 71.4936C26.1178 69.9279 24.6291 67.9303 21.7152 64.6099C3.78238 44.1756 -5.66527 11.199 3.845 2.23584L5.41055 0.760361L12.2118 1.08687C49.3375 2.86918 78.7976 15.268 115.625 44.6107C139.317 63.4878 161.34 86.852 179.197 112.058L181.051 114.673L181.243 114.094C181.617 112.963 181.195 112.165 179.176 110.19C175.924 107.007 175.995 105.132 179.468 102.464C181.055 101.245 181.055 101.71 179.469 96.8759C171.915 73.844 155.327 47.2057 143.172 38.584C141.13 37.136 140.486 36.8211 137.796 35.9562C133.251 34.4947 130.895 32.2511 130.98 29.466C131.045 27.3764 137.916 30.5015 143.28 35.0601C158.977 48.3993 172.713 70.3763 183.131 98.8128C183.327 99.3495 183.58 99.772 183.693 99.7517C183.806 99.7313 184.727 99.6821 185.74 99.6423C187.493 99.5735 187.593 99.546 187.794 99.0735C204.454 60.035 220.132 38.0231 237.552 29.217C239.831 28.065 240.273 28.2262 240.213 30.1862C240.131 32.8612 238.504 34.2731 233.202 36.2705C226.371 38.8441 219.278 46.7606 208.28 64.082C200.668 76.0704 191.705 94.7501 190.933 100.232L190.795 101.214L192.303 102.363C195.514 104.809 195.599 107.277 192.574 110.205C190.063 112.636 189.544 114.964 191.882 113.312C193.176 112.397 194.27 110.992 196.241 107.714C203.551 95.5545 226.328 69.7208 242.452 55.301C284.304 17.8738 322.565 0.533763 362.95 0.696627L367.499 0.714839L368.299 1.67895C372.515 6.76692 372.241 20.0244 367.661 32.5208C364.183 42.0099 359.324 50.519 348.674 65.7678L344.68 71.4873L344.849 73.5305C345.182 77.5609 344.422 80.3231 341.333 86.2925C338.224 92.3034 337.255 95.5211 336.632 101.901C335.667 111.804 334.975 113.807 331.679 116.246L330.694 116.975L330.517 121.257C330.073 132.023 326.387 139.66 319.631 143.809L318.315 144.618L319.027 145.167C321.382 146.983 322.383 149.881 322.592 155.497C322.941 164.839 322.964 165.035 324.045 167.684C324.377 168.498 324.985 169.993 325.397 171.007C326.836 174.547 326.864 175.475 325.612 178.07C324.802 179.748 324.77 180.034 324.78 185.57C324.786 188.373 324.464 189.261 323.105 190.196L322.504 190.61L322.86 191.485C325.517 198.014 322.586 207.807 317.218 210.334C316.35 210.743 316.158 211.319 315.751 214.729C315.325 218.303 314.802 219.376 311.819 222.798C308.724 226.348 307.414 227.292 305.406 227.418C303.424 227.542 302.874 227.964 299.72 231.788C297.392 234.609 296.679 235.036 293.474 235.519C291.398 235.833 290.287 236.351 287.955 238.09C285.215 240.135 284.619 240.376 281.953 240.51C278.796 240.669 277.931 240.998 271.745 244.391C267.707 246.605 266.724 246.88 263.909 246.581C259.41 246.102 256.839 246.154 252.493 246.813C244.35 248.048 243.522 247.937 239.401 245.057C237.036 243.405 236.014 243.008 233.256 242.669C224.912 241.642 216.448 229.31 202.862 198.386C198.573 188.624 196.048 181.951 193.539 173.75L192.448 170.182L192.287 171.106C192.199 171.614 191.884 177.407 191.588 183.977C191.292 190.548 190.998 196.14 190.935 196.403C190.872 196.667 190.702 197.573 190.557 198.418C189.932 202.052 188.357 205.907 186.719 207.807L186.027 208.611L185.446 207.865C181.676 203.019 180.551 195.205 180.561 173.924L180.563 169.614L177.243 178.646C169.464 199.806 163.18 213.207 154.107 227.992C146.993 239.584 144.413 242.188 139.362 242.878C136.55 243.261 135.522 243.683 132.836 245.559C129.079 248.18 127.227 248.428 120.508 247.206C115.608 246.315 113.831 246.272 111.751 246.994C109.913 247.633 107.797 247.689 106.007 247.146L106.005 247.144ZM123.086 243.88C124.286 243.309 124.981 242.036 124.753 240.826L124.642 240.233L123.234 240.296C120.038 240.438 118.887 242.156 121.143 243.416C122.467 244.155 122.494 244.162 123.086 243.88ZM130.548 241.933C130.862 241.793 132.024 241.567 133.132 241.431C135.473 241.142 136.369 240.807 136.784 240.064C137.33 239.084 137.291 239.066 134.726 239.107C130.581 239.172 128.827 240.108 129.67 241.804C129.895 242.256 129.841 242.248 130.548 241.933ZM113.585 241.174C113.992 241.079 114.027 240.964 114.069 239.578L114.115 238.084L112 237.677C109.662 237.228 108.306 237.418 108.018 238.235C107.484 239.75 111.23 241.727 113.585 241.174ZM250.982 243.418C252.034 242.821 252.976 241.381 252.544 241.031C251.482 240.169 248.495 239.534 247.702 240.001C247.368 240.198 247.504 241.022 248.129 242.59L248.578 243.716L249.47 243.743C250.009 243.76 250.608 243.631 250.982 243.418L250.982 243.418ZM99.8194 237.682C99.8841 235.579 97.8144 234.057 94.7615 233.963C93.1478 233.913 93.1094 233.991 94.0034 235.506C95.2184 237.565 99.7705 239.268 99.8194 237.682ZM243.135 240.907C242.457 239.494 241.326 239.054 238.112 238.955C235.51 238.875 235.362 238.944 236.073 239.905C236.619 240.644 237.78 241.061 240.085 241.348C241.219 241.489 242.399 241.681 242.706 241.774C243.384 241.981 243.519 241.708 243.135 240.907ZM129.469 237.148C130.62 236.651 130.04 232.304 128.802 232.149C125.517 231.735 121.61 234.614 123.385 236.14C124.69 237.26 127.957 237.802 129.469 237.148ZM262.229 240.619C263.966 240.158 265.269 238.134 264.204 237.553C261.684 236.179 257.31 237.945 258.043 240.041C258.259 240.658 260.775 241.006 262.229 240.619ZM118.737 233.965C118.552 230.153 111.854 227.656 109.141 230.388C108.575 230.958 108.589 230.988 109.81 231.919C112.181 233.728 114.528 234.575 117.221 234.594L118.767 234.605L118.737 233.965ZM141.401 234.417C150.624 233.008 160.749 210.41 162.714 186.85C163.26 180.31 163.088 180.121 160.519 184.419C159.538 186.06 156.387 191.065 153.518 195.54C150.649 200.015 147.725 204.614 147.02 205.76C146.315 206.905 144.756 209.379 143.555 211.257C137.349 220.964 134.373 231.463 137.137 233.899C137.704 234.399 139.832 234.658 141.401 234.418L141.401 234.417ZM86.3063 232.219C87.1249 231.782 86.149 228.913 84.9196 228.142C82.03 226.331 78.1189 228.647 80.66 230.665C82.5903 232.197 85.0692 232.88 86.3063 232.219ZM247.787 236.519C249.891 235.585 250.011 235.479 249.769 234.774C248.659 231.548 242.63 231.079 242.116 234.178C241.657 236.948 244.333 238.052 247.787 236.519ZM275.316 237.487C278.032 236.872 280.238 233.686 277.989 233.625C275.021 233.545 273.147 234.692 272.79 236.808L272.639 237.703L273.397 237.726C273.814 237.739 274.678 237.631 275.316 237.487ZM102.999 231.077C104.981 230.023 105.079 227.613 103.177 226.68C100.051 225.145 95.3751 227.92 97.4624 230.071C98.7504 231.399 101.467 231.892 102.999 231.077ZM233.636 234.786C237.453 233.195 237.033 226.216 232.594 217.48C229.331 211.057 226.861 207.108 219.05 195.821C215.418 190.574 211.072 183.76 210.403 182.265C207.807 176.466 209.579 193.519 212.623 203.632C219.326 225.901 227.144 237.493 233.634 234.788L233.636 234.786ZM257.139 234.06C262.878 233.299 265.865 229.293 260.809 229.138C256.936 229.019 254.17 230.715 253.397 233.685L253.259 234.212L254.374 234.246C254.987 234.265 256.231 234.181 257.139 234.061L257.139 234.06ZM127.125 226.855C130.57 225.666 133.397 223.038 137.077 217.6C137.847 216.462 139.405 214.169 140.538 212.506C143.511 208.144 145.024 205.784 149.819 198.03C153.826 191.549 155.121 189.56 161.579 179.965C167.61 171.003 170.578 165.503 172.911 158.969C175.005 153.103 176.399 144.978 175.409 144.41C174.809 144.065 174.736 144.119 173.564 145.765C168.619 152.707 161.324 158.902 147.108 168.233C140.139 172.807 136.337 175.487 136.239 175.894C133.76 186.144 129.939 195.171 122.691 207.905C118.137 215.904 117.288 222.469 120.284 226.519C120.927 227.389 124.998 227.589 127.126 226.855L127.125 226.855ZM288.702 231.82C291.311 231.48 292.78 230.006 292.42 228.091C291.892 225.281 286.257 227.708 285.892 230.903L285.775 231.933L286.62 231.957C287.085 231.971 288.021 231.908 288.702 231.82L288.702 231.82ZM272.821 231.121C275.351 230.568 276.021 228.049 274.021 226.612C271.901 225.09 268.013 226.281 267.946 228.474C267.876 230.721 269.822 231.777 272.821 231.121L272.821 231.121ZM90.9521 225.234C91.6458 225.141 91.6621 225.12 91.5801 224.435C91.3446 222.468 90.306 221.795 87.2122 221.606L85.0408 221.473L85.0222 222.078C84.9557 224.236 87.6571 225.674 90.9521 225.234ZM75.1486 224.281C76.5725 223.665 74.3144 220.133 71.9425 219.265C70.2643 218.65 68.8508 219.224 68.1623 220.799C67.2052 222.988 72.2829 225.519 75.1486 224.281ZM251.169 226.963C252.625 226.588 253.58 224.045 253.697 220.229C253.838 215.64 252.678 212.496 247.9 204.524C242.9 196.182 239.873 189.034 235.979 176.376L235.471 174.727L234.143 173.922C217.941 164.103 204.348 153.575 198.271 146.14C196.939 144.51 196.631 144.308 196.482 144.967C196.437 145.167 196.261 145.425 196.09 145.541C195.498 145.946 196.963 152.466 198.805 157.623C201.614 165.489 205.51 172.385 215.052 186.379C220.152 193.858 222.063 196.825 225.233 202.186C237.735 223.329 243.584 228.918 251.168 226.964L251.169 226.963ZM106.543 220.422C114.152 219.718 116.727 217.219 123.297 204.16C124.848 201.077 126.874 197.109 127.799 195.341C131.765 187.761 133.402 183.229 133.864 178.551L134.052 176.646L133.294 176.727C131.213 176.949 119.02 182.816 111.937 187.003C95.71 196.595 87.7494 206.802 90.9157 213.957C92.7733 218.155 99.7681 221.049 106.542 220.422L106.543 220.422ZM283.725 224.717C287.35 224.246 288.377 221.207 284.947 221.101C282.781 221.035 280.499 222.716 280.447 224.417C280.432 224.896 281.554 224.999 283.725 224.717L283.725 224.717ZM79.8576 217.849C80.3828 217.639 80.8413 217.444 80.8766 217.416C81.491 216.922 78.722 214.569 77.4708 214.521C77.0521 214.505 77.3331 215.99 77.9519 217.062C78.719 218.393 78.6097 218.348 79.8576 217.849ZM301.45 223.658C303.71 222.709 305.091 220.876 304.253 219.939C301.857 217.265 297.427 219.1 297.069 222.916C296.946 224.225 299.194 224.606 301.45 223.658ZM63.009 215.075C63.7988 211.333 63.0289 208.181 61.1753 207.568C60.2165 207.251 59.6688 212.746 60.4673 214.672C61.3609 216.827 62.598 217.023 63.009 215.075ZM271.305 219.971C277.979 218.855 282.266 214.413 281.689 209.212C280.577 199.176 266.554 188.017 242.257 177.832L238.929 176.437L238.422 176.79C236.196 178.337 248.383 205.342 255.241 214.058C259.35 219.281 264.373 221.129 271.306 219.969L271.305 219.971ZM70.5616 210.004C71.1033 208.525 68.2438 204.82 67.2677 205.736C67.043 205.947 67.4745 208.902 67.8165 209.494C68.4952 210.669 70.2018 210.986 70.5616 210.004ZM293.8 217.306L294.778 217.128L294.703 215.646C294.615 213.884 294.679 214.008 293.982 214.247C293.158 214.529 291.129 216.556 291.112 217.115C291.102 217.429 292.558 217.532 293.8 217.306ZM311.212 215.3C313.277 212.405 312.725 207.105 310.351 207.026C310.057 207.017 309.528 208.985 308.935 212.296C308.539 214.505 310.209 216.707 311.212 215.3ZM84.6387 205.799C87.2085 204.719 89.6066 202.7 94.4027 197.579C99.4734 192.163 102.693 189.84 112.376 184.611C117.199 182.006 116.895 182.179 116.788 182.1C116.576 181.946 108.232 182.087 105.68 182.289C88.9708 183.609 77.6799 188.046 75.0318 194.334C72.2746 200.879 78.5432 208.36 84.6389 205.799L84.6387 205.799ZM303.542 209.849C304.894 209 305.611 206.828 304.898 205.743C304.48 205.106 304.213 205.181 303.168 206.23C300.851 208.555 301.14 211.36 303.542 209.849ZM57.8783 199.372C57.8893 199.014 58.0383 198.413 58.2094 198.038C58.9628 196.383 58.1177 195.159 56.2115 195.145C55.7876 195.142 54.8407 197.549 54.8045 198.723L54.7672 199.928L57.8582 200.023L57.8783 199.372ZM292.323 205.772C296.107 204.615 299.083 198.77 297.802 195.013C295.293 187.656 277.048 181.146 260.11 181.564C255.799 181.671 255.827 181.648 258.27 183.034C264.058 186.317 271.367 191.702 276.579 196.525C285.166 204.471 289.074 206.766 292.323 205.772L292.323 205.772ZM163.781 201.708C163.803 201.003 166.641 195.132 170.29 188.241C179.345 171.145 181.608 163.326 180.788 151.981C180.549 148.677 179.744 147.753 179.016 149.949C178.021 152.95 175.969 157.439 172.679 163.809C164.464 179.714 162.191 188.366 163.239 199.747C163.4 201.493 163.749 202.756 163.781 201.709L163.781 201.708ZM67.1458 198.226C67.5975 197.959 66.9499 195.489 66.2269 194.722C65.3837 193.827 64.8192 193.892 64.424 194.928C63.6561 196.942 65.5135 199.193 67.1458 198.226ZM209.664 198.957C209.587 186.299 206.952 177.589 198.282 161.317C196.643 158.242 194.519 154.095 193.563 152.103L191.823 148.479L191.624 149.631C189.763 160.423 193.192 172.495 203.247 190.553C205.583 194.747 207.943 199.122 208.493 200.275C209.754 202.922 209.688 202.996 209.664 198.957L209.664 198.957ZM317.008 199.174C318.177 198.635 317.704 196.531 316.106 195.167C314.941 194.171 313.93 195.239 314.037 197.353C314.139 199.369 315.188 200.012 317.008 199.174ZM307.255 197.517C307.598 197.162 307.721 196.359 307.715 194.526L307.711 193.395L307.175 193.511C305.986 193.769 305.346 194.831 305.29 196.637L305.254 197.799L306.094 197.825C306.654 197.842 307.041 197.74 307.255 197.517ZM57.5038 189.164C57.9129 187.706 56.8631 185.791 55.1793 184.924C53.8023 184.216 53.2068 185.892 53.861 188.635L54.1603 189.89L55.7323 189.883L57.3043 189.876L57.5038 189.164ZM65.9321 186.557C67.293 185.499 64.888 182.874 63.0138 183.372C61.8274 183.687 61.7583 183.917 62.4978 185.089C63.5423 186.744 64.929 187.337 65.9321 186.557ZM80.2185 186.738C95.2815 184.564 109.467 172.231 110.271 160.612L110.445 158.088L109.449 157.961C108.686 157.864 108.075 157.949 106.83 158.324C104.625 158.989 102.062 159.378 95.2816 160.079C79.9686 161.661 76.9943 162.579 72.0088 167.258C61.1792 177.425 65.9715 188.797 80.2184 186.74L80.2185 186.738ZM317.827 188.89C319.255 187.537 319.187 184.142 317.731 184.097C317.257 184.083 315.121 186.124 314.859 186.841C314.027 189.119 316.085 190.539 317.827 188.89ZM62.323 179.113C63.1669 176.916 62.1194 172.596 61.1594 174.314C61.0274 174.55 60.4839 175.125 59.9516 175.593C58.3902 176.965 58.5947 178.057 60.6375 179.258C61.8692 179.982 61.9932 179.972 62.323 179.113ZM300.021 186.388C309.095 183.721 308.254 173.176 298.332 165.241C293.873 161.674 290.323 160.825 276.737 160.073C268.577 159.622 267.237 159.433 264.275 158.316C260.384 156.848 260.107 159.06 263.297 166.116C267.892 176.278 278.207 183.437 292.65 186.488C293.747 186.72 299.14 186.647 300.02 186.388L300.021 186.388ZM110.792 180.048C118.506 178.96 125.893 176.324 135.399 171.266C160.167 158.089 168.6 150.471 171.007 139.101C171.386 137.31 169.38 137.633 162.011 140.55C149.338 145.566 147.446 145.828 138.299 143.823C123.981 140.686 119.479 143.944 112.281 162.651C108.354 172.858 106.52 176.409 103.608 179.448L102.665 180.432L105.564 180.404C107.158 180.389 109.512 180.229 110.793 180.048L110.792 180.048ZM308.666 186.024C309.862 185.294 310.453 183.037 309.518 182.772C308.027 182.35 305.998 183.881 306.34 185.171C306.691 186.499 307.44 186.773 308.666 186.024ZM53.9172 177.862C54.3916 177.586 54.435 177.138 54.0623 176.361C53.2359 174.638 50.7137 175.277 50.6537 177.224C50.6275 178.076 52.8142 178.503 53.9172 177.862ZM269.272 179.952C269.264 179.476 267.913 177.117 266.801 175.636C264.103 172.045 263.245 170.362 259.857 162.012C256.554 153.871 254.709 150.489 252.01 147.618C247.695 143.029 244.379 142.389 233.643 144.073C223.737 145.627 222.229 145.393 209.95 140.399C205.185 138.461 201.442 137.437 201.203 138.005C198.961 143.34 206.21 152.494 219.207 160.739C238.085 172.715 249.863 177.987 261.646 179.736C262.813 179.909 269.273 180.092 269.271 179.952L269.272 179.952ZM54.1458 171.109C55.0759 169.687 54.5358 166.898 53.1644 166.041C52.3949 165.561 52.4135 165.538 52.0108 167.454C51.3295 170.695 52.7857 173.189 54.1458 171.109ZM311.606 178.975C313.386 177.888 313.236 175.125 311.329 173.866C309.982 172.977 309.931 173.104 309.684 177.964C309.606 179.479 310.237 179.811 311.606 178.975ZM62.2366 170.934C63.6631 170.253 63.9627 168.459 63.1143 165.679C62.4522 163.509 61.4457 163.328 59.9891 165.117C57.7457 167.871 59.4442 172.268 62.2366 170.934ZM320.565 177.382C321.545 176.951 321.277 175.665 320.067 174.993C319.745 174.814 319.452 174.695 319.417 174.728C317.2 176.83 317.939 178.536 320.565 177.382ZM319.902 170.656C321.4 168.986 320.433 165.27 318.484 165.21C317.89 165.192 317.259 169.763 317.762 170.434C318.425 171.317 319.233 171.401 319.902 170.656ZM312.537 170.189C313.82 168.058 312.345 163.481 310.354 163.417C309.261 163.382 308.354 167.193 308.927 169.412L309.213 170.521L310.747 170.568C312.136 170.611 312.304 170.575 312.537 170.189ZM58.6606 159.142C62.8526 157.28 64.3089 155.61 64.8516 152.039L65.0059 151.023L64.1154 150.597C60.0704 148.66 55.9025 152.412 55.343 158.493L55.1637 160.441L55.7275 160.318C56.0376 160.25 57.3574 159.721 58.6606 159.142ZM91.1473 158.786C100.555 158.525 108.366 157.38 111.835 155.755C114.25 154.623 115.7 152.853 117.794 148.48C119.584 144.743 121.5 142.205 122.545 142.185C123.177 142.173 121.768 141.787 119.514 141.355C92.392 136.16 72.297 142.423 73.4825 155.703C73.6843 157.964 80.1448 159.092 91.1473 158.786ZM317.086 158.751C317.272 151.839 310.352 146.703 307.32 151.503L306.812 152.307L307.641 153.544C309.423 156.206 311.927 158.229 314.796 159.326C317.06 160.191 317.048 160.195 317.086 158.751ZM293.025 158.441C297.539 157.649 299.412 156.343 299.251 154.1C298.459 143.059 284.494 137.643 262.289 139.766C255.977 140.369 247.285 141.985 249.917 142.067C250.673 142.09 251.959 143.906 253.901 147.689C257.65 154.996 259.22 155.967 268.994 157.028C271.061 157.252 274.79 157.672 277.28 157.961C283.716 158.708 283.567 158.696 287.505 158.741C290.159 158.772 291.582 158.695 293.025 158.441L293.025 158.441ZM147.92 142.12C156.117 141.393 164.439 139.025 165.197 137.205C165.647 136.126 165.386 136.001 163.626 136.451C157.377 138.051 149.565 138.587 133.915 138.491C122.67 138.422 118.737 138.451 118.732 138.603C118.71 139.328 128.352 141.501 133.999 142.043C136.523 142.286 145.494 142.335 147.919 142.12L147.92 142.12ZM234.748 141.988C241.133 141.599 253.483 139.534 253.504 138.852C253.507 138.764 244.141 138.428 232.691 138.105C213.896 137.575 211.566 137.476 208.716 137.081C206.979 136.84 205.527 136.672 205.49 136.707C205.354 136.834 209.554 138.896 210.978 139.401C217.029 141.548 225.979 142.522 234.746 141.988L234.748 141.988ZM83.3392 132.562C85.2031 132.249 87.4508 131.604 91.7281 130.156C107.03 124.974 113.829 124.594 132.89 127.853C143.107 129.599 146.456 130.074 152.143 130.58C163.06 131.552 171.856 130.08 176.33 126.531L177.012 125.991L175.603 125.816C169.363 125.043 163.699 122.309 154.726 115.739C148.145 110.919 145.287 109.201 138.297 105.863C123.945 99.0087 119.718 98.4575 106.986 101.78C99.7559 103.666 97.6247 103.959 89.2392 104.22C80.4502 104.494 77.4663 104.886 74.35 106.177C60.1984 112.04 68.0646 135.131 83.3389 132.563L83.3392 132.562ZM56.4053 126.544C58.2869 125.68 59.3521 123.419 58.5399 122.013C56.2214 117.998 49.9349 118.305 49.8129 122.439C49.7129 125.832 53.2124 128.011 56.4053 126.544ZM220.503 130.461C225.09 130.055 230.268 129.317 239.016 127.823C252.195 125.572 254.984 125.242 259.631 125.385C266.318 125.591 274.583 127.311 282.476 130.14C292.154 133.608 296.402 133.073 300.969 127.813C307.908 119.821 306.065 109.284 297.175 106.113C293.373 104.757 290.785 104.39 281.362 103.871C272.963 103.408 271.845 103.25 264.613 101.491C248.639 97.6078 243.606 98.9829 223.368 112.759C213.153 119.713 211.081 120.803 203.909 123.004C199.689 124.299 196.736 125.473 195.687 126.273L195.192 126.651L196.526 127.303C202.342 130.145 211.068 131.295 220.503 130.46L220.503 130.461ZM178.134 121.67C177.585 113.624 172.439 106.861 151.183 86.2529C148.81 83.9524 144.003 79.0716 140.499 75.4066C122.379 56.4493 113.937 51.2832 98.6456 49.7976C94.9133 49.4347 85.3224 49.7486 84.7411 50.2527C84.7026 50.2861 85.1955 50.9606 85.8363 51.7516C90.5467 57.5655 94.0309 64.5597 95.1285 70.405L95.3407 71.5354L98.1053 73.2757C105.238 77.7655 106.813 78.8088 108.637 80.2491C112.653 83.4206 115.194 86.4379 116.612 89.721C118.586 94.2879 118.773 94.6438 119.739 95.6695C121.168 97.186 122.907 98.0594 128.618 100.128C132.583 101.564 134.553 102.403 137.331 103.835C142.713 106.609 151.2 111.347 154.413 113.369C162.796 118.646 165.39 120.072 169.088 121.434C171.912 122.473 173.877 122.897 176.325 122.995L178.228 123.071L178.132 121.669L178.134 121.67ZM198.207 122.693C203.094 121.883 207.234 119.883 215.293 114.444C222.912 109.3 224.701 108.339 237.315 102.604C251.111 96.3315 252.494 95.5915 252.931 94.2533C255.385 86.7271 263.61 78.3761 274.107 72.7544C276.09 71.6926 276.076 71.7098 276.732 69.3747C278.702 62.3623 282.06 55.6278 285.095 52.5997C287.669 50.0324 287.236 49.7221 280.831 49.5444C259.701 48.958 249.422 54.5821 227.598 78.6681C221.074 85.8677 218.643 88.4336 214.119 92.8937C206.418 100.486 204.046 103 201.285 106.492C197.075 111.817 194.704 116.821 194.18 121.485L193.997 123.111L195.135 123.063C195.76 123.037 197.143 122.87 198.207 122.694L198.207 122.693ZM319.266 126.156C323.911 124.68 322.697 117.97 317.899 118.593C314.521 119.033 312.532 121.666 313.705 124.147C314.543 125.918 317.104 126.843 319.266 126.156ZM47.6375 108.2C47.683 106.494 46.7403 105.458 44.8531 105.141L43.942 104.987L44.0466 105.742C44.3012 107.58 45.1768 108.834 46.4513 109.189C47.5036 109.481 47.6056 109.396 47.6375 108.2ZM60.4161 108.227C60.9605 108.045 61.6434 107.663 61.9336 107.379L62.4613 106.862L62.4151 104.5L62.3689 102.137L61.3454 102.106C58.104 102.006 55.2484 103.464 53.9162 105.899L53.3955 106.85L53.9928 107.384C55.4372 108.675 58.0526 109.018 60.4161 108.227ZM79.0417 103.726C80.5722 103.515 84.3196 102.851 87.3691 102.25C90.4186 101.649 94.8372 100.864 97.188 100.505C118.322 97.2824 120.542 92.3712 105.913 81.2038C100.194 76.8378 92.3544 76.2522 74.8291 78.8822C64.2535 80.4692 60.3779 85.487 62.5165 94.8228C64.3707 102.917 68.5528 105.17 79.0415 103.725L79.0417 103.726ZM315.426 108.097C317.07 107.886 318.368 106.206 317.805 105.016C316.204 101.632 309.039 100.303 308.945 103.372C308.863 106.038 311.724 108.585 314.403 108.23C314.563 108.209 315.024 108.149 315.426 108.097ZM325.86 108.442C327.036 107.984 327.462 107.348 327.593 105.856C327.73 104.287 327.628 104.227 325.995 104.926C323.422 106.026 323.291 109.442 325.86 108.442ZM43.4221 95.8661C43.276 93.8482 42.2667 92.4546 39.9358 91.0528C38.5732 90.2332 38.5554 90.237 38.6742 91.3258C38.9972 94.2867 40.1353 95.9809 42.2899 96.7079C43.4153 97.0877 43.5057 97.0206 43.4221 95.8661ZM55.2817 96.7927C60.3046 95.1962 57.6548 88.8709 51.8887 88.6934C49.0227 88.6051 46.9394 90.1944 46.8677 92.5238C46.7723 95.6232 51.4671 98.0053 55.2817 96.7927ZM301.085 103.409C310.039 101.802 312.725 84.7838 304.678 80.6441C297.909 77.1606 275.161 75.3423 269.595 77.8399C266.951 79.0262 261.547 83.4816 259.171 86.4345C253.288 93.7459 257.069 97.3074 273.742 100.161C276.07 100.559 280.051 101.258 282.589 101.714C292.203 103.443 297.962 103.971 301.086 103.41L301.085 103.409ZM320.004 96.5377C326.619 95.3338 326.971 88.2405 320.426 88.0503C316.41 87.9337 313.178 91.1467 313.809 94.6283C314.078 96.1093 317.152 97.0569 320.004 96.5377ZM331.334 95.0911C332.798 93.7087 333.23 92.0999 332.567 90.4961L332.248 89.7251L331.808 90.3891C331.566 90.7543 330.928 91.4006 330.391 91.8252C328.982 92.9379 327.92 95.5758 328.593 96.29C328.908 96.6238 330.404 95.9693 331.334 95.0911ZM49.455 81.1303C50.8095 80.4918 51.8492 78.9824 51.7216 77.8398C51.5332 76.1522 43.5806 76.07 43.2874 77.7526C42.8041 80.526 46.4738 82.5357 49.4552 81.1305L49.455 81.1303ZM36.1991 80.2098C37.4799 79.598 37.941 76.8692 36.8317 76.4656C35.3246 75.9173 33.889 77.0931 33.9783 78.8026C34.0612 80.3921 34.8161 80.8705 36.1991 80.2098ZM76.1372 77.4704C78.7992 77.2301 80.8013 76.7232 85.9847 74.9772C88.6773 74.0703 91.467 73.1913 92.1844 73.024C93.609 72.6918 93.6285 72.6617 93.2268 71.4179C93.0753 70.9488 92.5302 68.8843 92.0155 66.83C90.4848 60.7209 89.6301 58.5421 87.9862 56.5587C81.603 48.857 64.0485 49.2266 59.9599 57.1489C54.3015 68.1102 62.7172 78.6828 76.1372 77.4704ZM326.865 80.2439C327.246 79.7605 327.761 79.1058 328.01 78.7891C329.268 77.1899 327.198 75.4927 324.312 75.7573C318.739 76.268 319.164 80.8055 324.809 81.061L326.172 81.1228L326.865 80.2439ZM337.531 78.5298C337.592 75.863 337.178 75.4126 335.232 76.0278L334.481 76.2651L334.526 77.3762C334.591 79.0039 335.321 79.7529 336.968 79.8851L337.499 79.9277L337.531 78.5298ZM47.5512 69.7498C54.0597 67.6812 52.486 57.5485 45.6237 57.3373C40.7366 57.1868 37.386 62.2873 39.4202 66.7809C40.6194 69.4302 44.3134 70.7789 47.5514 69.7498L47.5512 69.7498ZM303.069 77.0548C309.707 75.4875 313.387 70.438 313.194 63.1636C312.933 53.2847 306.439 48.9574 294.975 51.0229C285.468 52.7359 282.069 55.956 280.031 65.1801C279.084 69.4671 278.544 71.7962 278.441 72.0425C278.376 72.1964 278.844 72.4 279.843 72.6525C280.668 72.861 283.583 73.7433 286.321 74.6132C289.059 75.4831 292.208 76.3921 293.317 76.633C294.426 76.8739 295.55 77.1178 295.814 77.1748C296.891 77.4074 301.929 77.3241 303.069 77.0549L303.069 77.0548ZM34.6772 64.4973C36.9931 63.3874 36.6446 60.6293 34.1793 60.5555C32.2255 60.4967 30.4609 62.329 30.8334 64.0297C31.0409 64.9771 33.1427 65.2328 34.6772 64.4973ZM327.219 69.106C335.171 67.6783 334.385 56.9262 326.315 56.7405C320.393 56.6042 317.429 65.5554 322.45 68.4143C323.814 69.1911 325.436 69.4262 327.219 69.106ZM26.5439 58.6856C27.5485 56.4794 26.0338 53.9479 23.6604 53.8663C22.1721 53.8152 21.5453 55.655 22.4001 57.5647C23.2003 59.3522 25.9068 60.0843 26.5439 58.6856ZM340.489 64.1706C341.11 63.9759 341.125 63.9467 341.066 63.0387C340.865 59.9571 336.76 58.7528 335.309 61.3499L334.946 62.0004L335.562 62.5578C337.141 63.9863 339.067 64.6168 340.489 64.1706ZM35.8957 53.7278C36.4084 53.1486 36.32 51.0301 35.7288 49.729L35.2085 48.5841L33.7043 48.6059C31.2056 48.6422 30.9018 49.3776 32.083 52.5305L32.6132 53.9458L34.117 53.9921C35.2801 54.0279 35.6831 53.9681 35.8957 53.7278ZM48.5581 51.3625C56.0385 49.6968 57.802 41.1486 51.0388 39.3388C46.8976 38.2306 36.371 40.0351 35.4187 42.0165C32.6638 47.7485 40.323 53.1962 48.5581 51.3625ZM347.353 58.5567C349.262 57.8867 350.149 55.9458 349.494 53.8695L349.294 53.2348L348.086 53.2743C346.025 53.3417 344.797 54.5636 344.734 56.6092C344.671 58.6615 345.435 59.2299 347.353 58.5567ZM24.9212 46.6554C28.6475 45.515 28.89 41.7678 25.3576 39.9066C21.5083 37.8783 16.5562 41.0145 18.0883 44.5102C18.9261 46.4216 22.2626 47.469 24.9212 46.6554ZM80.5801 46.1355C82.3784 45.7377 82.4673 45.6597 82.2122 44.7044C80.8727 39.6869 70.3371 37.7746 65.9676 41.7557C64.9987 42.6385 65.0099 42.6745 66.5046 43.4815C71.4948 46.1759 76.3012 47.0821 80.5801 46.1355ZM110.548 46.5234C110.555 46.3064 108.082 43.8456 106.327 42.3228C101.51 38.1436 95.498 35.2671 89.0675 34.0649C86.6685 33.6164 86.6598 33.6858 88.8498 35.785C93.7207 40.4537 98.4644 43.4918 103.721 45.3091C106.65 46.3219 110.533 47.0125 110.548 46.5234ZM339.5 52.4648C340.278 49.7381 339.953 47.8651 338.701 47.8649C336.148 47.8641 334.662 50.0781 335.642 52.4219L335.99 53.2527L339.247 53.353L339.5 52.4648ZM329.293 51.0125C333.411 50.1766 336.065 47.6059 336.721 43.8159L336.989 42.2706L336.374 41.5972C334.108 39.1155 326.389 37.5165 321.957 38.6107C311.032 41.3074 318.115 53.2811 329.293 51.0125ZM265.56 45.8656C271.635 43.9382 277.151 40.6638 282.28 35.9387C285.369 33.0932 285.381 33.137 281.747 33.9235C272.661 35.8905 263.073 41.9461 261.212 46.8932C261.132 47.1075 263.145 46.6316 265.56 45.8656ZM16.1208 37.4136C17.4073 37.0993 18.1031 36.3886 18.0098 35.484C17.6823 32.3108 12.4761 30.354 11.0696 32.8753C9.58245 35.5409 12.6189 38.269 16.1208 37.4136ZM298.421 45.7308C301.293 45.0914 303.885 43.8313 305.478 42.2998L306.252 41.5566L305.326 40.9285C300.274 37.5016 290.717 39.3847 289.599 44.0273C289.216 45.6217 294.408 46.6243 298.421 45.7308ZM65.8412 37.7076C67.4516 37.4513 69.8576 36.4996 69.8694 36.1143C69.8945 35.3001 68.1478 33.6103 66.4382 32.7946C63.4594 31.3735 55.7223 30.8454 55.6849 32.0606C55.5752 35.6234 60.7745 38.5143 65.8412 37.7076ZM349.765 46.2312C350.881 45.943 352.324 45.2548 352.99 44.6932C353.348 44.3907 353.387 44.1576 353.389 42.3041L353.391 40.2501L351.965 39.5198C348.281 37.6331 345.202 38.7335 344.888 42.0489C344.593 45.1564 346.753 47.0089 349.765 46.2314L349.765 46.2312ZM41.7941 34.2645C47.7699 33.4603 52.6418 30.5043 52.7303 27.6291C52.7612 26.6275 38.8869 25.581 35.0042 26.2921C30.5531 27.1073 28.0817 28.949 27.4713 31.9056C27.156 33.4334 27.1114 33.3823 29.0928 33.7641C32.9485 34.5072 38.3963 34.7218 41.7941 34.2645ZM71.7636 30.117C71.632 22.4235 60.4771 16.8424 60.2842 24.3734C60.1691 28.8655 63.2809 31.1155 70.8682 32.0258C71.7286 32.1291 71.7955 31.9862 71.7636 30.117ZM21.1187 29.1661C22.695 28.6967 23.7341 28.1395 24.5521 27.3251L25.0969 26.7826L24.7209 25.9617C22.6027 21.3371 13.2835 21.3214 13.1412 25.9422C13.0454 29.0527 16.6318 30.5021 21.1187 29.1661ZM309.866 37.0961C312.941 36.4534 315.478 34.3881 316.058 32.0556L316.209 31.4485L315.091 31.254C309.819 30.3367 304.044 31.8983 301.873 34.8281C301.172 35.7748 301.24 35.8786 303.058 36.6267C304.96 37.4096 307.522 37.5862 309.866 37.0961ZM86.5097 29.6318C86.591 26.9898 81.6397 23.468 76.879 22.7816L75.7066 22.6125L75.8932 23.2048C76.5408 25.2595 78.8876 27.7165 81.0638 28.6177C82.7926 29.3338 86.4976 30.0237 86.5097 29.6318ZM358.874 36.4318C360.378 35.7174 361.129 34.6265 361.177 33.0867C361.281 29.716 354.662 30.772 353.897 34.2483C353.464 36.2146 356.514 37.5523 358.874 36.4318L358.874 36.4318ZM339.172 33.6964C340.965 33.276 343.135 32.2673 343.937 31.4816L344.508 30.9223L344.069 30.0324C341.776 25.3789 327.496 23.6003 319.476 26.9696L318.405 27.4195L318.677 27.9854C320.686 32.1731 332.102 35.3543 339.17 33.6964L339.172 33.6964ZM39.5304 23.866C44.5904 22.9266 48.9356 19.8411 48.5557 17.457C47.8259 12.8784 25.6787 13.7268 25.5511 18.338C25.4362 22.5298 32.2382 25.2197 39.53 23.8659L39.5304 23.866ZM304.376 31.0115C308.512 30.1525 311.272 26.8514 311.403 22.6074L311.456 20.8813L310.739 20.6085C306.241 18.8962 300.718 23.6244 299.653 30.0988L299.494 31.0681L300.142 31.1775C301.015 31.3249 303.298 31.2354 304.376 31.0115ZM287.541 29.0889C290.684 28.5886 293.327 26.9075 294.918 24.3974C296.079 22.5643 296.172 22.0847 295.338 22.2162C289.917 23.0709 286.518 25.3482 285.396 28.8771C285.228 29.4057 285.428 29.4254 287.541 29.0889ZM9.78374 19.9316C10.4806 19.7681 10.4009 18.7246 9.58321 17.307L8.90311 16.1278L7.94485 16.2247C6.45762 16.3752 4.29193 17.7403 4.26721 18.5429C4.25249 19.0212 8.79292 20.1642 9.78374 19.9316ZM55.588 20.6039C56.7522 20.106 57.4604 19.2289 57.4055 18.3532C57.2987 16.6521 52.3037 16.147 51.2667 17.7324C49.8337 19.9229 52.7104 21.8344 55.588 20.6039ZM71.4175 20.5171C70.8818 18.9771 69.5833 18.0555 66.7031 17.1711C64.9603 16.636 64.9508 16.6393 65.1997 17.6892C65.5722 19.2604 66.8703 20.1997 69.8092 21.0247C71.8744 21.6044 71.8034 21.6267 71.4175 20.5171ZM355.332 28.6637C357.647 27.9554 359.262 25.3258 358.308 23.819C356.08 20.3002 346.822 21.8687 346.702 25.7857C346.638 27.8611 352.053 29.667 355.332 28.6637ZM21.6917 15.7085C25.1985 13.9413 24.3748 9.72251 20.4294 9.24269C15.4824 8.64107 12.6005 14.1596 16.9489 15.9076C18.2518 16.4313 20.4394 16.3396 21.6917 15.7085ZM339.137 23.4333C343.714 22.9257 346.273 20.7182 345.596 17.8612C344.131 11.685 324.409 12.0233 322.637 18.2552C321.892 20.8739 332.421 24.178 339.137 23.4333L339.137 23.4333ZM301.606 20.6108C304.228 19.9772 306.52 18.2832 306.561 16.9476C306.614 15.2188 301.152 17.8166 299.881 20.1247C299.286 21.2057 299.22 21.1872 301.606 20.6108ZM319.383 20.2646C321.969 19.4304 320.68 16.4173 317.699 16.327C314.3 16.2239 313.654 16.8826 314.854 19.2308L315.447 20.3909L317.089 20.4329C317.992 20.456 319.025 20.3803 319.383 20.2646ZM8.40957 8.0161C9.86149 7.69104 9.79844 7.44027 8.1017 6.79169C5.98154 5.98128 4.26534 6.13896 4.23431 7.14696C4.20311 8.16027 6.04913 8.54458 8.40957 8.0161ZM365.782 18.5747C367.081 17.9891 367.188 17.3305 366.146 16.3226C364.534 14.7631 360.922 16.1182 360.855 18.3079C360.826 19.2305 363.951 19.3997 365.782 18.5747ZM34.9605 8.5169C35.2779 8.16496 34.7407 6.66954 34.0235 5.90844C31.1252 2.83247 23.8892 3.27696 23.7889 6.53695C23.7568 7.58001 34.1452 9.42116 34.9605 8.5169ZM355.187 15.0108C359.489 12.6694 354.724 7.01914 349.974 8.82987C348.022 9.57406 346.84 11.7567 347.568 13.2745C348.524 15.266 352.889 16.261 355.186 15.0108L355.187 15.0108ZM341.55 7.87768C345.491 7.4406 348.268 5.53291 346.735 4.31539C343.513 1.75573 336.774 3.74779 336.641 7.29944L336.617 7.92585L338.404 7.97705C339.387 8.00521 340.803 7.96047 341.55 7.87762L341.55 7.87768ZM367.141 7.06868C367.993 6.25602 365.775 5.30246 363.924 5.68566C362.987 5.87968 361.597 6.77103 361.584 7.18589C361.573 7.56158 366.739 7.4526 367.141 7.06868Z" fill="#223B38"/>
</svg>