<svg width="336" height="358" viewBox="0 0 336 358" fill="none" xmlns="http://www.w3.org/2000/svg">
<path d="M79.725 85.6422C79.8752 80.8731 80.212 76.0903 80.9383 71.3338C81.3024 68.9559 81.7671 66.5864 82.375 64.2413C82.9823 61.8968 83.7389 59.576 84.7024 57.3205C85.6716 55.069 86.8553 52.8798 88.3482 50.8696C89.0963 49.867 89.9186 48.9098 90.8254 48.0269C91.7315 47.1446 92.7188 46.3328 93.7799 45.6234C94.841 44.9139 95.9756 44.3092 97.1555 43.8177C98.3354 43.3263 99.5616 42.9506 100.805 42.6866C102.049 42.4221 103.309 42.2722 104.567 42.2109C105.196 42.1796 105.824 42.1747 106.45 42.1882C106.606 42.1902 106.762 42.1958 106.919 42.202L107.154 42.2107C107.23 42.2131 107.318 42.2194 107.4 42.2239L107.648 42.2385C107.731 42.2432 107.815 42.2474 107.892 42.2594L108.364 42.3196L108.836 42.3799L109.291 42.4472C109.593 42.4935 109.896 42.5346 110.196 42.5881C110.497 42.6403 110.798 42.6884 111.098 42.7448L111.996 42.9157C113.189 43.1552 114.373 43.4264 115.549 43.7216C116.723 44.022 117.89 44.3452 119.048 44.6935L119.913 44.962L120.346 45.0966L120.776 45.237L121.637 45.5183L122.493 45.8112C124.776 46.5935 127.023 47.4606 129.244 48.3891C131.465 49.3153 133.653 50.3115 135.815 51.3589C144.461 55.5548 152.629 60.6436 160.322 66.3251L161.76 67.3971L163.187 68.4826L164.601 69.5838C165.072 69.9523 165.537 70.3263 166.005 70.6981C167.871 72.1909 169.709 73.7163 171.52 75.2708C173.334 76.8231 175.113 78.4136 176.869 80.0268C178.628 81.6383 180.361 83.2756 182.066 84.94C183.769 86.6078 185.46 88.2867 187.114 90.0004C188.77 91.712 190.405 93.4441 192.017 95.196C193.624 96.9534 195.213 98.7264 196.775 100.523L197.941 101.875L198.522 102.553L199.098 103.235C199.481 103.691 199.868 104.141 200.249 104.602L201.395 105.985C201.489 106.103 201.588 106.213 201.678 106.335L201.945 106.705C202.125 106.954 202.293 107.193 202.467 107.438C202.81 107.927 203.151 108.417 203.486 108.912C204.155 109.901 204.808 110.901 205.438 111.916C206.701 113.946 207.879 116.028 208.968 118.158C210.056 120.289 211.049 122.47 211.925 124.702C212.802 126.932 213.566 129.211 214.179 131.536C214.79 133.86 215.263 136.229 215.531 138.63C215.798 141.03 215.869 143.465 215.66 145.893C215.451 148.319 214.953 150.743 214.067 153.051C213.624 154.204 213.084 155.325 212.439 156.389C211.795 157.454 211.042 158.458 210.196 159.379C209.35 160.3 208.408 161.137 207.391 161.866C206.374 162.598 205.285 163.225 204.153 163.749C203.02 164.272 201.844 164.692 200.648 165.019C200.355 165.1 200.032 165.183 199.712 165.248C199.39 165.311 199.062 165.361 198.73 165.393C198.064 165.454 197.377 165.448 196.689 165.328C196.002 165.21 195.316 164.979 194.689 164.623C194.061 164.268 193.499 163.788 193.047 163.23C192.593 162.672 192.249 162.042 192.005 161.39C191.762 160.736 191.617 160.06 191.548 159.386C191.415 158.037 191.578 156.702 191.926 155.442C192.276 154.181 192.811 152.989 193.475 151.886C193.805 151.333 194.169 150.803 194.56 150.296C194.949 149.787 195.366 149.302 195.806 148.84C196.684 147.916 197.65 147.082 198.676 146.342C200.73 144.862 203.007 143.742 205.361 142.923C207.718 142.104 210.153 141.575 212.599 141.266C213.823 141.111 215.049 141.016 216.276 140.961C217.501 140.91 218.727 140.903 219.95 140.936C220.56 140.955 221.171 140.98 221.78 141.019L222.237 141.047L222.68 141.08C222.976 141.106 223.269 141.119 223.562 141.133L224.002 141.156L224.453 141.182C224.754 141.199 225.055 141.217 225.355 141.238C225.655 141.257 225.956 141.278 226.256 141.301C226.557 141.322 226.857 141.344 227.158 141.37C229.56 141.564 231.957 141.83 234.345 142.169C239.121 142.847 243.861 143.818 248.518 145.111C257.83 147.69 266.815 151.571 274.999 156.76C279.089 159.351 282.982 162.259 286.62 165.454C290.258 168.649 293.647 172.126 296.738 175.848C302.917 183.291 307.956 191.692 311.413 200.731C312.278 202.989 313.037 205.29 313.682 207.623C314.005 208.79 314.298 209.965 314.561 211.146C314.823 212.329 315.051 213.52 315.247 214.716C315.639 217.109 315.891 219.528 315.965 221.96C316.002 223.175 315.996 224.394 315.938 225.611C315.878 226.828 315.764 228.046 315.591 229.256C315.245 231.675 314.647 234.077 313.684 236.353C313.201 237.489 312.624 238.59 311.936 239.624C311.591 240.139 311.221 240.641 310.821 241.117C310.622 241.356 310.414 241.588 310.199 241.813C310.093 241.927 309.983 242.037 309.873 242.148L309.545 242.463C307.8 244.146 305.902 245.658 303.896 246.991C302.893 247.657 301.862 248.28 300.809 248.857C299.756 249.436 298.684 249.973 297.592 250.465L297.442 250.162C298.487 249.594 299.514 248.995 300.512 248.356C301.511 247.717 302.485 247.043 303.429 246.331C305.315 244.908 307.078 243.331 308.681 241.614L308.98 241.293C309.076 241.186 309.171 241.08 309.263 240.971C309.448 240.755 309.627 240.532 309.799 240.304C310.145 239.85 310.463 239.374 310.757 238.883C311.344 237.902 311.826 236.855 312.229 235.779C313.03 233.622 313.488 231.338 313.725 229.035C313.842 227.882 313.901 226.723 313.91 225.561C313.921 224.399 313.884 223.237 313.805 222.076C313.726 220.915 313.603 219.756 313.445 218.602C313.289 217.447 313.095 216.298 312.868 215.154C312.642 214.011 312.383 212.873 312.092 211.743C311.804 210.613 311.488 209.49 311.143 208.375C310.453 206.145 309.653 203.949 308.765 201.791C307.876 199.632 306.886 197.515 305.82 195.439C304.752 193.363 303.599 191.332 302.366 189.35C299.908 185.382 297.135 181.614 294.103 178.072C292.585 176.303 291.005 174.587 289.358 172.937C287.715 171.284 286.008 169.696 284.247 168.17C280.722 165.122 276.975 162.332 273.04 159.831C269.106 157.33 264.991 155.108 260.733 153.191C259.669 152.711 258.595 152.252 257.513 151.811C256.432 151.369 255.343 150.944 254.247 150.54C252.054 149.731 249.83 149.001 247.584 148.342C243.092 147.023 238.505 146.012 233.867 145.282C231.548 144.918 229.216 144.625 226.876 144.4C226.584 144.371 226.291 144.344 225.998 144.318C225.705 144.291 225.412 144.265 225.12 144.242C224.827 144.217 224.533 144.194 224.24 144.173L223.8 144.139L223.35 144.108C223.049 144.088 222.747 144.069 222.451 144.041L222.004 144.002L221.57 143.97C220.992 143.926 220.413 143.896 219.834 143.869C218.677 143.819 217.52 143.809 216.366 143.838C215.212 143.872 214.062 143.944 212.919 144.071C210.634 144.318 208.377 144.766 206.214 145.472C204.053 146.175 201.984 147.141 200.138 148.414C199.215 149.049 198.348 149.759 197.564 150.546C197.172 150.939 196.8 151.35 196.453 151.78C196.107 152.209 195.782 152.656 195.49 153.12C194.902 154.045 194.429 155.038 194.117 156.066C193.804 157.093 193.656 158.159 193.732 159.183C193.807 160.202 194.118 161.178 194.693 161.924C194.979 162.296 195.328 162.61 195.728 162.852C196.127 163.093 196.579 163.262 197.062 163.359C197.544 163.458 198.059 163.478 198.579 163.445C198.84 163.427 199.102 163.393 199.366 163.349C199.632 163.302 199.888 163.245 200.171 163.172C201.28 162.893 202.364 162.531 203.406 162.074C205.489 161.165 207.397 159.868 208.963 158.224C209.747 157.403 210.449 156.502 211.057 155.538C211.666 154.573 212.185 153.549 212.617 152.484C213.482 150.355 213.989 148.074 214.229 145.764C214.47 143.45 214.437 141.103 214.21 138.775C213.983 136.444 213.559 134.129 212.984 131.85C211.834 127.289 210.102 122.874 207.99 118.657C207.728 118.129 207.455 117.605 207.181 117.083C206.903 116.563 206.623 116.043 206.334 115.529C205.759 114.498 205.16 113.481 204.542 112.474C203.925 111.468 203.284 110.475 202.627 109.494C202.298 109.004 201.965 108.517 201.626 108.033C201.457 107.793 201.285 107.545 201.117 107.313L200.864 106.96C200.779 106.843 200.68 106.731 200.588 106.617L199.466 105.252C199.091 104.797 198.705 104.345 198.324 103.892L197.752 103.212L197.172 102.539L196.009 101.195C194.446 99.4138 192.851 97.6596 191.229 95.9333C189.603 94.2091 187.944 92.5177 186.259 90.8525C184.569 89.1923 182.852 87.5606 181.104 85.9624C177.612 82.7628 173.996 79.7023 170.286 76.7681C166.575 73.8362 162.766 71.0311 158.867 68.3671C158.383 68.0306 157.889 67.706 157.401 67.3746C156.914 67.0414 156.42 66.7185 155.928 66.3923C155.438 66.0642 154.943 65.7443 154.447 65.4237L153.705 64.9429L152.958 64.4683C150.969 63.2004 148.956 61.972 146.924 60.7775C142.861 58.3886 138.714 56.1497 134.481 54.0972C132.366 53.0689 130.226 52.095 128.062 51.1823C125.897 50.2726 123.714 49.4082 121.502 48.635L120.673 48.3448L119.84 48.0662L119.424 47.9276L119.006 47.7947L118.17 47.5291C117.052 47.1851 115.931 46.8559 114.804 46.5556C113.677 46.2588 112.544 45.9862 111.407 45.7439L110.554 45.5717C110.269 45.5147 109.984 45.4661 109.699 45.4126C109.415 45.358 109.129 45.3135 108.844 45.2655L108.417 45.1949L108.004 45.1351L107.592 45.0747C107.522 45.0621 107.457 45.0588 107.391 45.0549L107.195 45.0407C107.128 45.0367 107.066 45.0301 106.995 45.0269L106.783 45.0157C106.641 45.0077 106.5 45.0003 106.359 44.9971C105.795 44.9764 105.232 44.9726 104.671 44.9918C103.548 45.0289 102.435 45.1489 101.343 45.3605C99.1592 45.7789 97.0678 46.5921 95.1995 47.7915C94.2647 48.389 93.383 49.0765 92.5628 49.8402C91.7416 50.6026 90.9847 51.4431 90.2859 52.3362C88.8857 54.1234 87.7243 56.123 86.7532 58.2231C85.7755 60.3222 84.9861 62.5247 84.3186 64.7698C83.6534 67.0162 83.1163 69.3098 82.6646 71.6239C81.7631 76.2558 81.2202 80.9703 80.7863 85.7017L79.725 85.6422Z" fill="#F68E52"/>
<path d="M134.31 288.361C134.226 288.654 134.145 288.947 134.089 289.243C134.055 289.39 134.036 289.538 134.01 289.686C133.992 289.834 133.968 289.982 133.958 290.13C133.93 290.426 133.924 290.721 133.936 291.013C133.948 291.304 133.982 291.594 134.04 291.875C134.257 293.01 134.882 294.02 135.751 294.807C136.62 295.599 137.695 296.191 138.825 296.655C139.392 296.886 139.975 297.088 140.569 297.262C141.163 297.438 141.766 297.59 142.376 297.722C143.595 297.987 144.836 298.178 146.086 298.32C147.335 298.462 148.593 298.555 149.855 298.613C152.378 298.726 154.914 298.707 157.448 298.604C159.983 298.501 162.516 298.311 165.043 298.06C167.57 297.807 170.096 297.494 172.599 297.103C172.911 297.054 173.224 297.003 173.534 296.951L173.753 296.913L173.804 296.904L173.861 296.891L173.975 296.866L174.43 296.764C175.054 296.627 175.684 296.489 176.312 296.358C177.569 296.093 178.831 295.843 180.097 295.611C182.628 295.144 185.177 294.751 187.741 294.449C192.866 293.852 198.061 293.644 203.241 294.022C208.415 294.403 213.573 295.379 218.504 297.081C220.969 297.929 223.374 298.957 225.694 300.152C226.273 300.451 226.847 300.76 227.417 301.079L227.842 301.32L228.055 301.442L228.161 301.503L228.276 301.573L228.506 301.713C228.582 301.761 228.657 301.812 228.732 301.862C228.883 301.959 229.03 302.069 229.177 302.176C229.469 302.399 229.755 302.633 230.023 302.898C230.16 303.025 230.288 303.168 230.417 303.306C230.542 303.451 230.668 303.595 230.783 303.75C231.254 304.361 231.631 305.075 231.862 305.839C232.095 306.604 232.171 307.413 232.116 308.192C232.06 308.973 231.873 309.723 231.607 310.423C231.337 311.122 230.988 311.774 230.583 312.376C230.179 312.979 229.722 313.534 229.226 314.045C228.233 315.066 227.092 315.919 225.846 316.588C224.601 317.256 223.249 317.742 221.832 317.986L221.775 317.996L221.711 318C220.374 318.102 219.061 318.016 217.788 317.823C216.515 317.628 215.277 317.327 214.07 316.96C211.658 316.221 209.367 315.226 207.163 314.093C204.96 312.955 202.842 311.673 200.811 310.26C199.795 309.552 198.802 308.81 197.835 308.024C197.351 307.632 196.874 307.227 196.406 306.807C196.171 306.599 195.937 306.381 195.718 306.175L195.054 305.558C193.266 303.882 191.569 302.145 189.862 300.481C188.153 298.819 186.424 297.235 184.554 295.886C183.622 295.206 182.652 294.592 181.653 294.033C181.404 293.893 181.149 293.763 180.896 293.627C180.639 293.501 180.386 293.367 180.126 293.247C179.866 293.126 179.608 293.002 179.343 292.89L178.949 292.719L178.563 292.562C178.305 292.449 178.049 292.371 177.792 292.285C177.668 292.24 177.526 292.202 177.392 292.161C177.257 292.121 177.122 292.078 176.986 292.041C176.71 291.969 176.44 291.889 176.16 291.827L175.744 291.728L175.323 291.638C174.2 291.402 173.049 291.235 171.883 291.108C169.552 290.851 167.164 290.761 164.748 290.66C162.331 290.558 159.878 290.459 157.392 290.155C157.082 290.117 156.77 290.073 156.46 290.029C156.148 289.979 155.837 289.937 155.525 289.878L155.057 289.794L154.604 289.703L153.699 289.519C153.397 289.461 153.096 289.392 152.797 289.323L151.896 289.12C151.595 289.056 151.298 288.976 150.998 288.903L150.102 288.681C147.717 288.068 145.364 287.338 143.049 286.511C138.418 284.854 133.943 282.791 129.659 280.406C125.375 278.019 121.282 275.31 117.39 272.352C113.497 269.395 109.799 266.196 106.286 262.815C102.772 259.434 99.4415 255.873 96.2771 252.177C89.9503 244.781 84.2813 236.86 79.1435 228.63C76.5747 224.513 74.1422 220.316 71.8283 216.056C69.5175 211.794 67.3289 207.469 65.2539 203.092C61.1056 194.335 57.4078 185.371 54.1747 176.242C53.3669 173.96 52.5912 171.666 51.8445 169.362C51.0972 167.06 50.3832 164.745 49.7037 162.42C48.3483 157.77 47.1235 153.079 46.107 148.336C45.603 145.963 45.1486 143.578 44.7773 141.176C44.5919 139.975 44.4274 138.769 44.2926 137.558C44.1597 136.347 44.0512 135.131 43.9973 133.906C43.9684 133.296 43.9572 132.675 43.9516 132.073C43.9457 131.468 43.9417 130.862 43.9401 130.256C43.9386 129.044 43.9475 127.83 43.9724 126.618C44.0225 124.191 44.1357 121.763 44.3402 119.34C44.5459 116.918 44.8444 114.498 45.2782 112.098C45.713 109.698 46.2844 107.315 47.0588 104.989C47.8347 102.666 48.8192 100.396 50.0998 98.2832C51.3801 96.1748 52.9735 94.2263 54.8985 92.6439C55.8589 91.8528 56.8953 91.1522 57.9925 90.5649C59.0892 89.9758 60.2424 89.4961 61.4261 89.1255C62.6105 88.7543 63.8256 88.4911 65.0491 88.3216C65.6609 88.2374 66.2757 88.1738 66.8903 88.1349C67.1979 88.1157 67.5058 88.0996 67.8132 88.0906C67.9655 88.0839 68.1223 88.0811 68.2809 88.0791C68.4383 88.077 68.5942 88.0706 68.7599 88.0835C69.3906 88.1184 69.9995 88.1851 70.6115 88.2725C71.2211 88.3597 71.8255 88.4669 72.4252 88.5869C73.625 88.8287 74.8092 89.1227 75.9825 89.4458C78.329 90.0945 80.6332 90.8634 82.9121 91.6915C87.4673 93.3566 91.929 95.2464 96.3257 97.2703C100.725 99.289 105.057 101.448 109.338 103.701C117.893 108.219 126.244 113.128 134.328 118.458C138.37 121.124 142.341 123.899 146.222 126.804C150.101 129.71 153.888 132.748 157.534 135.959C161.176 139.176 164.682 142.564 167.93 146.216C169.553 148.043 171.109 149.937 172.565 151.917C174.019 153.899 175.374 155.967 176.564 158.147C177.754 160.326 178.78 162.621 179.511 165.045C179.876 166.256 180.166 167.499 180.357 168.766C180.452 169.395 180.519 170.052 180.567 170.66C180.616 171.275 180.658 171.885 180.696 172.494C180.843 174.929 180.937 177.353 181.012 179.778C181.084 182.203 181.135 184.627 181.161 187.053C181.258 196.75 181.064 206.453 180.433 216.153C180.111 221.003 179.678 225.851 179.048 230.692C178.732 233.112 178.365 235.53 177.925 237.942C177.483 240.354 176.968 242.762 176.327 245.156C175.683 247.548 174.923 249.931 173.887 252.265C173.364 253.43 172.773 254.584 172.045 255.699C171.683 256.256 171.283 256.802 170.837 257.33C170.39 257.856 169.894 258.363 169.331 258.825C168.768 259.286 168.134 259.704 167.433 260.028C166.734 260.354 165.963 260.579 165.182 260.674C164.791 260.722 164.397 260.739 164.01 260.725L163.721 260.71C163.625 260.702 163.529 260.695 163.434 260.684C163.34 260.672 163.24 260.662 163.152 260.648L162.888 260.608C162.185 260.497 161.472 260.304 160.775 260.025C160.427 259.879 160.083 259.717 159.749 259.523C159.417 259.328 159.094 259.113 158.791 258.868C158.488 258.624 158.201 258.36 157.937 258.074C157.676 257.788 157.435 257.486 157.219 257.171C157.005 256.855 156.812 256.531 156.644 256.199C156.479 255.866 156.329 255.53 156.204 255.19C155.952 254.511 155.776 253.826 155.653 253.147C155.411 251.787 155.368 250.454 155.42 249.154C155.473 247.853 155.625 246.581 155.834 245.331C156.258 242.833 156.9 240.418 157.648 238.053C158.399 235.689 159.26 233.375 160.194 231.099C161.131 228.823 162.139 226.584 163.204 224.374C164.269 222.164 165.394 219.986 166.568 217.835C167.743 215.684 168.969 213.561 170.256 211.47C171.542 209.379 172.885 207.318 174.318 205.301C175.757 203.288 177.265 201.339 178.847 199.443C180.429 197.549 182.081 195.711 183.812 193.943C185.54 192.174 187.351 190.477 189.247 188.87C191.146 187.267 193.131 185.751 195.225 184.373C197.316 182.993 199.517 181.753 201.828 180.713C202.986 180.197 204.172 179.732 205.383 179.329C206.596 178.932 207.835 178.597 209.094 178.338C210.355 178.084 211.636 177.909 212.927 177.82L213.412 177.795C213.574 177.787 213.736 177.778 213.89 177.775C214.203 177.764 214.516 177.757 214.829 177.752C215.456 177.744 216.082 177.746 216.707 177.759C221.715 177.869 226.688 178.72 231.443 180.181C236.202 181.641 240.746 183.699 245.018 186.175C249.29 188.657 253.294 191.555 257.029 194.742C260.767 197.93 264.232 201.417 267.438 205.115C270.643 208.817 273.594 212.731 276.264 216.827C278.935 220.923 281.338 225.194 283.419 229.624C284.457 231.84 285.414 234.096 286.273 236.392C287.133 238.688 287.897 241.023 288.536 243.398C289.176 245.772 289.693 248.187 290.037 250.638C290.38 253.088 290.553 255.576 290.457 258.079C290.406 259.33 290.288 260.585 290.078 261.832C289.868 263.08 289.565 264.321 289.141 265.531C288.719 266.742 288.174 267.923 287.483 269.028C287.138 269.579 286.758 270.112 286.342 270.618C286.29 270.683 286.239 270.742 286.189 270.8L286.037 270.978L285.734 271.333C285.534 271.571 285.321 271.798 285.114 272.031C283.44 273.871 281.6 275.556 279.637 277.07C277.672 278.582 275.586 279.927 273.426 281.12C271.265 282.312 269.024 283.344 266.742 284.252C264.457 285.156 262.127 285.927 259.771 286.593C255.055 287.914 250.243 288.807 245.41 289.402C240.574 289.996 235.714 290.29 230.859 290.376C221.145 290.538 211.452 289.873 201.839 288.737C197.03 288.166 192.24 287.473 187.468 286.69C185.081 286.299 182.698 285.888 180.319 285.47L176.749 284.85C176.153 284.75 175.559 284.651 174.963 284.561C174.368 284.474 173.769 284.384 173.182 284.353L173.194 284.015C173.814 284.035 174.414 284.113 175.016 284.188C175.617 284.265 176.216 284.352 176.814 284.44C178.011 284.617 179.205 284.804 180.399 284.989C182.787 285.359 185.175 285.724 187.565 286.068C192.346 286.755 197.137 287.363 201.939 287.847C211.541 288.814 221.198 289.318 230.83 289.014C235.644 288.859 240.45 288.491 245.213 287.842C249.974 287.19 254.694 286.244 259.286 284.89C261.58 284.209 263.843 283.43 266.051 282.523C268.256 281.614 270.411 280.587 272.477 279.414C274.543 278.24 276.524 276.924 278.383 275.46C280.239 273.994 281.968 272.374 283.534 270.613C283.726 270.39 283.926 270.173 284.113 269.945L284.396 269.606L284.538 269.436C284.585 269.379 284.633 269.323 284.674 269.269C285.02 268.834 285.337 268.373 285.626 267.894C286.202 266.934 286.662 265.897 287.018 264.817C287.375 263.737 287.629 262.615 287.804 261.476C287.978 260.336 288.07 259.177 288.099 258.013C288.153 255.684 287.955 253.336 287.592 251.009C287.228 248.682 286.699 246.373 286.051 244.095C284.752 239.538 282.985 235.106 280.911 230.826C278.837 226.546 276.447 222.414 273.799 218.46C271.149 214.507 268.245 210.725 265.096 207.165C261.947 203.606 258.554 200.268 254.925 197.22C251.296 194.176 247.426 191.427 243.329 189.094C239.233 186.763 234.911 184.842 230.422 183.5C225.937 182.15 221.287 181.388 216.622 181.306C216.039 181.298 215.456 181.298 214.873 181.307C214.583 181.313 214.29 181.32 214 181.332C213.852 181.336 213.713 181.344 213.573 181.352L213.151 181.375C212.029 181.455 210.908 181.611 209.798 181.838C208.687 182.069 207.586 182.368 206.5 182.728C205.414 183.092 204.344 183.515 203.291 183.987C201.186 184.938 199.155 186.085 197.205 187.377C195.252 188.666 193.382 190.098 191.583 191.623C187.989 194.682 184.68 198.111 181.637 201.761C180.116 203.585 178.659 205.472 177.283 207.4C175.911 209.331 174.606 211.33 173.356 213.364C170.855 217.434 168.551 221.639 166.463 225.935C165.42 228.085 164.434 230.258 163.522 232.457C162.611 234.655 161.772 236.877 161.048 239.123C160.326 241.367 159.716 243.638 159.32 245.908C159.125 247.042 158.986 248.175 158.935 249.289C158.884 250.401 158.923 251.498 159.101 252.518C159.279 253.535 159.601 254.472 160.099 255.206C160.594 255.942 161.258 256.476 162.099 256.826C162.522 256.996 162.978 257.129 163.469 257.209L163.653 257.239C163.714 257.249 163.765 257.253 163.821 257.261C163.875 257.268 163.93 257.271 163.984 257.277L164.147 257.286C164.364 257.295 164.576 257.287 164.786 257.263C165.205 257.214 165.613 257.1 166.011 256.917C166.41 256.736 166.801 256.488 167.176 256.183C167.928 255.574 168.608 254.753 169.208 253.844C169.811 252.933 170.336 251.931 170.809 250.89C171.752 248.803 172.488 246.567 173.115 244.294C173.74 242.017 174.252 239.693 174.697 237.351C175.14 235.009 175.513 232.645 175.839 230.272C176.487 225.526 176.946 220.741 177.294 215.946C177.639 211.15 177.87 206.341 178.016 201.527C178.163 196.715 178.226 191.897 178.21 187.081C178.202 184.674 178.177 182.266 178.126 179.86C178.075 177.455 178.003 175.049 177.882 172.66C177.851 172.063 177.817 171.468 177.776 170.878C177.735 170.28 177.686 169.734 177.608 169.169C177.452 168.046 177.207 166.927 176.888 165.824C176.251 163.615 175.327 161.468 174.236 159.398C173.143 157.327 171.876 155.332 170.505 153.404C169.131 151.477 167.653 149.615 166.1 147.81C162.992 144.201 159.602 140.816 156.064 137.589C152.523 134.362 148.829 131.293 145.035 128.348C141.239 125.403 137.342 122.584 133.371 119.87C129.397 117.158 125.351 114.549 121.238 112.046C119.183 110.794 117.111 109.567 115.024 108.366C112.937 107.167 110.834 105.992 108.717 104.845C104.484 102.55 100.187 100.369 95.8307 98.3179C93.6506 97.296 91.4551 96.3082 89.2409 95.3652C87.0273 94.4216 84.7945 93.5221 82.538 92.6916C80.2821 91.8616 78.0044 91.0912 75.6975 90.4432C74.5446 90.1193 73.383 89.8282 72.2146 89.5907C71.631 89.4725 71.045 89.3674 70.4586 89.2826C69.8741 89.1974 69.2806 89.133 68.7044 89.0994C68.5685 89.0876 68.4217 89.0929 68.2775 89.0949C68.1334 89.0968 67.988 89.0987 67.8387 89.105C67.5417 89.113 67.2458 89.1289 66.9496 89.1471C66.358 89.1843 65.768 89.2444 65.1812 89.3251C64.0087 89.4867 62.8498 89.7375 61.7234 90.0903C60.597 90.442 59.5053 90.8972 58.468 91.4556C57.4304 92.0121 56.4511 92.6752 55.5415 93.4252C53.7194 94.9234 52.2042 96.7819 50.9779 98.8112C49.7501 100.844 48.8029 103.047 48.055 105.314C47.3069 107.583 46.759 109.92 46.3443 112.28C45.9294 114.642 45.6503 117.029 45.4631 119.424C45.2752 121.819 45.1832 124.224 45.1522 126.629C45.137 127.833 45.1368 129.036 45.1503 130.241C45.1571 130.842 45.1669 131.444 45.179 132.047C45.1908 132.653 45.2066 133.24 45.2409 133.836C45.3043 135.024 45.4209 136.215 45.5635 137.404C45.7068 138.592 45.8801 139.778 46.0742 140.962C46.4604 143.329 46.9418 145.685 47.4666 148.029C48.5248 152.718 49.7955 157.363 51.2061 161.962C52.6135 166.563 54.1693 171.119 55.8384 175.631C59.1829 184.654 62.9856 193.504 67.2285 202.13C69.3503 206.443 71.5836 210.699 73.9328 214.887C76.2795 219.077 78.746 223.198 81.3337 227.237C83.9201 231.278 86.6373 235.232 89.4846 239.084C92.3319 242.937 95.3227 246.68 98.4593 250.291C101.597 253.9 104.887 257.373 108.343 260.665C111.8 263.956 115.422 267.067 119.221 269.938C123.019 272.808 126.997 275.436 131.147 277.746C135.296 280.058 139.619 282.05 144.081 283.65C146.312 284.451 148.577 285.155 150.871 285.748L151.733 285.962C152.02 286.032 152.306 286.11 152.596 286.173L153.463 286.369C153.751 286.435 154.04 286.502 154.33 286.558L155.201 286.736L155.636 286.825L156.06 286.902C156.341 286.956 156.629 286.996 156.913 287.043C157.2 287.083 157.487 287.125 157.777 287.161C160.09 287.451 162.474 287.558 164.886 287.665C167.3 287.773 169.748 287.869 172.222 288.147C173.458 288.286 174.702 288.467 175.943 288.732L176.408 288.832L176.873 288.943C177.184 289.014 177.492 289.105 177.801 289.187C177.955 289.229 178.108 289.279 178.263 289.324C178.417 289.372 178.568 289.413 178.727 289.47L179.201 289.63C179.28 289.657 179.359 289.684 179.433 289.716L179.659 289.809L180.111 289.995L180.546 290.186C180.837 290.311 181.122 290.449 181.409 290.584C181.696 290.718 181.976 290.867 182.26 291.009C182.539 291.159 182.821 291.305 183.096 291.462C184.2 292.084 185.27 292.769 186.285 293.516C188.324 295.002 190.152 296.699 191.892 298.405C193.631 300.116 195.3 301.838 197.025 303.469L197.683 304.088C197.901 304.296 198.107 304.491 198.323 304.684C198.75 305.072 199.192 305.451 199.642 305.821C200.542 306.561 201.479 307.27 202.439 307.948C204.359 309.302 206.373 310.537 208.452 311.626C210.531 312.713 212.684 313.657 214.887 314.349C215.988 314.692 217.102 314.971 218.216 315.151C219.329 315.329 220.444 315.404 221.52 315.331L221.4 315.347C223.608 314.982 225.758 313.838 227.352 312.222C228.146 311.416 228.802 310.483 229.192 309.497C229.384 309.005 229.511 308.503 229.551 308.01C229.588 307.517 229.547 307.035 229.413 306.577C229.152 305.661 228.511 304.842 227.649 304.184C227.539 304.104 227.433 304.021 227.316 303.945C227.259 303.906 227.203 303.866 227.144 303.829L226.967 303.719L226.879 303.664L226.778 303.605L226.577 303.487L226.173 303.252C225.633 302.943 225.088 302.642 224.537 302.352C222.335 301.19 220.047 300.19 217.698 299.352C212.999 297.67 208.054 296.675 203.052 296.247C198.046 295.816 192.983 295.954 187.952 296.47C185.435 296.729 182.924 297.079 180.422 297.504C179.17 297.715 177.921 297.945 176.673 298.188C176.048 298.309 175.428 298.434 174.801 298.561L174.32 298.66L174.199 298.685L174.139 298.698L174.071 298.709L173.817 298.749C173.496 298.799 173.177 298.846 172.859 298.892C170.306 299.256 167.753 299.537 165.192 299.758C162.631 299.976 160.065 300.128 157.492 300.196C154.921 300.262 152.343 300.244 149.766 300.084C148.478 300.004 147.191 299.888 145.906 299.721C144.621 299.553 143.34 299.335 142.07 299.036C141.434 298.887 140.802 298.716 140.177 298.519C139.551 298.322 138.931 298.096 138.321 297.835C137.714 297.572 137.115 297.275 136.542 296.922C136.254 296.747 135.973 296.558 135.702 296.354C135.431 296.149 135.167 295.932 134.919 295.693C134.422 295.218 133.975 294.675 133.63 294.063C133.458 293.758 133.309 293.438 133.189 293.108C133.07 292.776 132.981 292.436 132.919 292.092C132.855 291.748 132.822 291.401 132.816 291.055C132.808 290.709 132.822 290.364 132.862 290.026C132.877 289.856 132.907 289.688 132.931 289.52C132.963 289.354 132.99 289.186 133.03 289.023C133.101 288.692 133.196 288.37 133.295 288.051L134.31 288.361Z" fill="#F68E52"/>
<path d="M44.3631 268.729C44.8836 267.888 45.5945 267.148 46.4274 266.564C47.2626 265.981 48.2089 265.558 49.1868 265.261C49.6765 265.114 50.1741 264.995 50.6761 264.902C51.1779 264.813 51.6832 264.746 52.1895 264.697C53.2019 264.606 54.2178 264.59 55.2276 264.627C57.2474 264.704 59.2432 264.977 61.2097 265.345C62.1943 265.526 63.1697 265.74 64.1408 265.969C65.1105 266.2 66.0776 266.442 67.0353 266.709C67.9939 266.973 68.9485 267.25 69.8981 267.536C70.8482 267.823 71.7909 268.128 72.7327 268.435C74.6167 269.047 76.4796 269.709 78.3371 270.38C79.2666 270.713 80.1896 271.06 81.1119 271.409L83.874 272.459C85.7102 273.17 87.5379 273.896 89.3661 274.617L94.8309 276.806C96.6474 277.543 98.4677 278.266 100.285 278.989C102.101 279.717 103.924 280.419 105.744 281.124C106.656 281.474 107.569 281.816 108.483 282.156C109.396 282.499 110.31 282.835 111.228 283.162C114.893 284.476 118.588 285.691 122.339 286.668C126.088 287.637 129.902 288.374 133.787 288.456L133.837 289.32C131.848 289.596 129.829 289.626 127.828 289.518C125.825 289.412 123.837 289.159 121.868 288.826C117.93 288.149 114.074 287.136 110.282 285.978C109.334 285.686 108.389 285.387 107.448 285.079C106.508 284.769 105.572 284.449 104.637 284.125C102.767 283.481 100.916 282.793 99.0688 282.101C97.2229 281.407 95.3897 280.682 93.5585 279.962C91.7319 279.229 89.9095 278.49 88.0901 277.751L82.6474 275.512L79.931 274.393L77.2124 273.288C75.4011 272.551 73.5839 271.837 71.7657 271.133C70.8563 270.782 69.9429 270.443 69.0304 270.106C68.1181 269.768 67.202 269.439 66.2836 269.124C65.3638 268.811 64.4452 268.498 63.5206 268.209C62.596 267.917 61.6675 267.644 60.7361 267.385C59.8046 267.127 58.8671 266.897 57.9274 266.688C56.9871 266.478 56.0413 266.307 55.0911 266.173C54.1414 266.034 53.1879 265.954 52.2344 265.927C51.7581 265.918 51.2813 265.924 50.8055 265.952C50.3318 265.986 49.858 266.034 49.3885 266.111C48.919 266.188 48.4573 266.301 48.0019 266.439C47.5475 266.58 47.0995 266.752 46.6729 266.97C45.8104 267.396 45.0261 267.994 44.3631 268.729Z" fill="#F68E52"/>
<path d="M41.6505 295.721C41.9268 294.772 42.4122 293.869 43.0578 293.083C43.7063 292.298 44.5042 291.637 45.3667 291.088C45.7995 290.815 46.2466 290.567 46.7055 290.342C47.1653 290.121 47.6348 289.921 48.109 289.737C49.0603 289.377 50.0357 289.088 51.0187 288.852C52.9871 288.382 54.9842 288.108 56.9793 287.932C57.9774 287.841 58.9757 287.784 59.9727 287.743C60.9702 287.703 61.9666 287.675 62.9627 287.674C63.9584 287.67 64.9525 287.679 65.9462 287.698C66.9394 287.718 67.9309 287.757 68.9211 287.799C70.9029 287.879 72.8772 288.013 74.8488 288.158C75.8348 288.228 76.8184 288.313 77.8019 288.399L80.7488 288.665C82.7108 288.853 84.6691 289.057 86.626 289.257L92.4857 289.888C94.4362 290.107 96.3857 290.31 98.3331 290.515C100.28 290.725 102.228 290.908 104.173 291.094C105.146 291.185 106.119 291.267 107.092 291.347C108.064 291.43 109.036 291.505 110.009 291.572C113.898 291.845 117.787 292.015 121.665 291.94C125.538 291.857 129.413 291.534 133.172 290.562L133.48 291.457C131.633 292.256 129.692 292.827 127.733 293.26C125.771 293.695 123.784 293.985 121.796 294.194C117.814 294.599 113.823 294.66 109.854 294.565C108.861 294.539 107.87 294.504 106.88 294.462C105.889 294.416 104.901 294.359 103.912 294.3C101.936 294.182 99.9649 294.019 97.9976 293.85C96.0301 293.677 94.0681 293.474 92.1076 293.273C90.1488 293.06 88.1931 292.839 86.2393 292.617L80.3874 291.927L77.4662 291.582L74.547 291.251C72.602 291.03 70.6576 290.832 68.7141 290.645C67.7425 290.552 66.7706 290.472 65.799 290.394C64.8276 290.314 63.8565 290.246 62.8855 290.189C61.915 290.135 60.9443 290.083 59.9743 290.052C59.0042 290.021 58.0351 290.009 57.0671 290.011C56.0991 290.013 55.1336 290.044 54.1704 290.097C53.2068 290.149 52.2489 290.239 51.2971 290.366C50.3438 290.488 49.4025 290.669 48.4757 290.901C48.0134 291.021 47.5559 291.155 47.1045 291.31C46.6563 291.47 46.2124 291.644 45.7812 291.845C45.3494 292.046 44.9343 292.279 44.5322 292.535C44.1317 292.793 43.7469 293.079 43.3943 293.404C42.6849 294.048 42.0914 294.835 41.6505 295.721Z" fill="#F68E52"/>
</svg>
