<?xml version="1.0" encoding="utf-8"?>
<!-- Generator: Adobe Illustrator 27.9.0, SVG Export Plug-In . SVG Version: 6.00 Build 0)  -->
<svg version="1.1" id="Layer_1" xmlns="http://www.w3.org/2000/svg" xmlns:xlink="http://www.w3.org/1999/xlink" x="0px" y="0px"
	 viewBox="0 0 156 78.6" style="enable-background:new 0 0 156 78.6;" xml:space="preserve">
<style type="text/css">
	.st0{fill:url(#SVGID_00000181052452429397595010000004849571140746875581_);}
</style>
<g id="Capa_2">
	<g id="Capa_1-2">
		
			<linearGradient id="SVGID_00000151511616314043319030000008275662798833159833_" gradientUnits="userSpaceOnUse" x1="-5.791104e-03" y1="40.6789" x2="156.0082" y2="40.6789" gradientTransform="matrix(1 0 0 -1 0 80)">
			<stop  offset="0" style="stop-color:#7E6AF7"/>
			<stop  offset="1" style="stop-color:#72CAAD"/>
		</linearGradient>
		<path id="SVGID" style="fill:url(#SVGID_00000151511616314043319030000008275662798833159833_);" d="M20.1,11.7
			c-1.4,0-2.7,0.5-3.7,1.5l0,0c-1,1-1.5,2.3-1.5,3.7c0,2.9,2.3,5.3,5.2,5.3c1.4,0,2.8-0.6,3.8-1.6c0,0,0-0.1,0.1-0.1
			c2-2.1,1.9-5.4-0.2-7.4C22.8,12.2,21.5,11.7,20.1,11.7L20.1,11.7z M78,48.3h0.1c2.4,0,5.1,0,6.7,8.9c0.7,4.3,1.6,8.6,2.9,12.7
			c1,3,2.1,5.2,3.2,4.9l0,0c1.6-0.7,3-5.1,3.7-10.7c0.8-5.9,0.6-12.9-1.3-18.4c-0.3-0.8-0.6-1.6-1-2.4c-2.8-5.7-7-10.6-12.3-14.2
			c-0.7-0.4-1.3-0.8-2-1.2c-0.7,0.4-1.3,0.8-2,1.2c-5.3,3.5-9.5,8.4-12.3,14.1c-0.4,0.8-0.7,1.6-1,2.4c-1.8,5.5-2,12.5-1.3,18.4
			c0.7,5.6,2.1,9.9,3.7,10.7l0,0c1,0.3,2.1-1.9,3.2-4.9c1.3-4.2,2.2-8.4,2.9-12.7c1.6-9,4.3-9,6.7-8.9L78,48.3z M78.1,52h-0.3
			c-0.9,0-2,0-3,5.9c-0.7,4.5-1.7,8.9-3,13.3c-1.7,5-4.2,8.5-7.9,7.2l0,0c-0.2,0-0.3-0.1-0.5-0.2c-2.7-1.3-4.9-6.8-5.8-13.6
			c-0.8-6.4-0.6-14,1.4-20.1c0.3-1,0.7-1.9,1.2-2.9C63.4,35.4,68.1,30,74,26.1h0.1c-3.5-1.5-7.3-2.2-11.1-2.3
			c-6.1-0.2-12.2,0.5-18.1,2.1c-5.7,1.6-11,4.3-15.6,8.1L29,34c0.5,0.2,1,0.5,1.5,0.8c4.7,2.8,8.3,6.8,11.5,11
			c2.8,3.5,4.9,7.5,6.2,11.8c0.9,3.3,1.4,6.6,1.5,10c0.1,2-0.1,3.9-0.7,5.8c-0.3,0.9-0.9,1.6-1.8,2c-0.9,0.4-2,0.4-2.9-0.1
			c-1.4-0.8-2.7-2-3.6-3.3c-1-1.3-2.1-2.8-3.2-4.4c-3-4.2-6-8.4-6-8.4c-0.3,0.1,0.3,3.3,0.8,6.5c0.2,1,0.3,2.1,0.5,3.1
			c0.3,2.1-0.1,4.1-1,6c-0.4,0.8-1.1,1.4-1.9,1.8c-1,0.4-2.1,0.3-2.9-0.2c-1.3-0.7-2.7-2.4-4.1-5.6c-2.5-5.4-4.1-11.1-4.8-17
			c-0.1-1,0.7-1.9,1.7-2s1.9,0.7,2,1.7c0.7,5.5,2.2,10.8,4.5,15.8c0.5,1.4,1.3,2.7,2.3,3.7l0,0c0.5-1.1,0.7-2.4,0.5-3.7
			c-0.1-0.9-0.3-1.9-0.5-3c-0.8-4.5-1.5-9,1.2-10.4c2.9-1.5,6.8,4,10.8,9.5c1,1.4,2.1,2.9,3.2,4.3c0.6,0.8,1.2,1.5,2,2.1
			c0.4-1.3,0.5-2.7,0.4-4.1c0-3.1-0.5-6.1-1.3-9c-1.2-3.9-3.1-7.4-5.7-10.6c-3-3.8-6.2-7.5-10.4-10c-0.9-0.5-1.9-1-2.9-1.4
			c-3.9,3.1-7.6,5.8-10.8,7.8c-4.4,2.8-8,4.4-10.1,4c-1.6-0.3-3.3-1.8-4.1-4C0.2,43.2,0,41.9,0,40.6c0.1-1.5,0.5-2.9,1.4-4.2
			C3,34,6.3,32,12,31.3c4.4-0.5,8.8-0.2,13,1.1l1.8-1.4c5-4,10.8-7,16.9-8.8C50,20.6,56.5,19.9,63,20c5.2,0.1,10.3,1.4,15,3.7
			c4.7-2.4,9.8-3.6,15-3.7c6.5-0.2,12.9,0.6,19.2,2.2c6.2,1.7,12,4.7,17,8.8l1.8,1.4c4.2-1.3,8.6-1.6,13-1.1c5.8,0.6,9,2.7,10.6,5.1
			c0.9,1.2,1.4,2.7,1.4,4.2c0.1,1.3-0.2,2.6-0.7,3.8c-0.9,2.1-2.5,3.7-4.1,4c-2.2,0.4-5.7-1.2-10.1-4c-3.1-2-6.8-4.7-10.8-7.8
			c-1,0.4-2,0.9-2.9,1.4c-4.2,2.5-7.4,6.1-10.4,10c-2.5,3.1-4.4,6.7-5.6,10.6c-0.9,2.9-1.3,5.9-1.4,9c-0.1,1.4,0,2.8,0.4,4.1
			c0.8-0.6,1.4-1.3,2-2.1c1.1-1.4,2.1-2.8,3.2-4.3c4-5.5,7.9-11,10.8-9.5c2.7,1.4,1.9,5.9,1.2,10.4c-0.2,1-0.4,2.1-0.5,3
			c-0.2,1.2,0,2.5,0.5,3.7l0,0c1-1.1,1.8-2.3,2.3-3.7c2.3-5,3.8-10.4,4.5-15.8c0.1-1,1-1.8,2-1.7s1.8,1,1.7,2
			c-0.7,5.9-2.3,11.6-4.8,17c-1.4,3.2-2.8,4.9-4.1,5.6c-0.9,0.6-2,0.7-3,0.2c-0.8-0.4-1.5-1-1.9-1.8c-0.9-1.9-1.3-3.9-1-6
			c0.1-1,0.3-2.1,0.5-3.1c0.5-3.1,1.1-6.3,0.8-6.5c0,0-3,4.2-6.1,8.4c-1.1,1.6-2.2,3.1-3.2,4.4c-0.9,1.4-2.2,2.5-3.6,3.3
			c-0.9,0.5-2,0.5-2.9,0.1c-0.8-0.4-1.4-1.1-1.8-2c-0.6-1.9-0.8-3.8-0.7-5.8c0-3.4,0.5-6.7,1.5-10c1.3-4.3,3.5-8.3,6.3-11.8
			c3.2-4.2,6.8-8.1,11.5-10.9c0.5-0.3,1-0.6,1.5-0.8l-0.2-0.1c-4.6-3.7-9.9-6.5-15.6-8.1c-5.9-1.6-12.1-2.2-18.2-2.1
			c-3.8,0.1-7.6,0.8-11.1,2.3l0,0c5.9,3.9,10.7,9.3,13.8,15.7c0.4,0.9,0.8,1.9,1.2,2.9c2,6,2.2,13.7,1.4,20.1
			c-0.9,6.7-3,12.3-5.8,13.6c-0.1,0.1-0.3,0.1-0.4,0.2l0,0c-3.7,1.2-6.2-2.2-7.9-7.2c-1.3-4.3-2.3-8.8-3-13.3
			C80.2,52,79.1,52,78.1,52L78.1,52z M12.9,41.3c2.5-1.6,5.4-3.6,8.4-6c-2.9-0.5-5.9-0.6-8.9-0.3c-4.5,0.5-6.9,1.9-7.9,3.5
			C4,39.2,3.8,40,3.7,40.8c0,0.8,0.1,1.5,0.4,2.2c0.4,1,0.9,1.7,1.3,1.7C6.6,44.9,9.3,43.6,12.9,41.3L12.9,41.3z M134.6,35.3
			c3,2.3,5.9,4.3,8.4,6c3.6,2.3,6.4,3.7,7.5,3.5c0.4-0.1,0.9-0.7,1.3-1.7c0.3-0.7,0.4-1.5,0.4-2.2c0-0.8-0.3-1.6-0.8-2.3
			c-1.1-1.6-3.5-3-7.9-3.5C140.6,34.7,137.6,34.8,134.6,35.3L134.6,35.3z M135.8,7.9c5,0,9,4.1,8.9,9.1c0,2.3-0.9,4.6-2.6,6.3l0,0
			c-3.5,3.5-9.2,3.5-12.7,0l0,0c-3.5-3.5-3.5-9.2,0-12.7l0.1-0.1C131.3,8.8,133.5,7.9,135.8,7.9L135.8,7.9z M139.5,13.2
			c-2-2-5.3-2.1-7.4-0.1l-0.1,0.1c-2.1,2.1-2.1,5.4,0,7.4c2.1,2.1,5.4,2.1,7.4,0l0,0C141.6,18.6,141.6,15.3,139.5,13.2
			C139.5,13.2,139.5,13.2,139.5,13.2L139.5,13.2z M78,0c5,0,9,4.1,8.9,9.1c0,2.3-0.9,4.6-2.6,6.3l0,0c-3.5,3.5-9.2,3.5-12.7,0l0,0
			c-3.5-3.5-3.5-9.2,0-12.7l0.1-0.1C73.4,0.9,75.7,0,78,0z M81.7,5.3c-2-2-5.3-2.1-7.3-0.1l-0.1,0.1c-2.1,2.1-2.1,5.4,0,7.4
			s5.4,2.1,7.4,0l0,0l0,0C83.8,10.6,83.8,7.3,81.7,5.3z M13.8,10.6c3.7-3.3,9.4-2.9,12.7,0.8c3,3.4,3,8.4,0.1,11.8
			c0,0-0.1,0.1-0.1,0.1c-3.5,3.5-9.2,3.5-12.7,0l0,0C10.3,19.7,10.3,14.1,13.8,10.6L13.8,10.6z"/>
	</g>
</g>
</svg>
